ply
format ascii 1.0
comment VCGLIB generated
element vertex 8
property float x
property float y
property float z
property uchar red
property uchar green
property uchar blue
property uchar alpha
element face 12
property list uchar int vertex_indices
end_header
1 -1 -1 192 192 192 255 
1 -1 1 192 192 192 255 
-1 -1 1 192 192 192 255 
-1 -1 -1 192 192 192 255 
1 1 -0.999999 192 192 192 255 
0.999999 1 1 192 192 192 255 
-1 1 1 192 192 192 255 
-1 1 -1 192 192 192 255 
3 1 2 3 
3 7 6 5 
3 4 5 1 
3 5 6 2 
3 2 6 7 
3 0 3 7 
3 0 1 3 
3 4 7 5 
3 0 4 1 
3 1 5 2 
3 3 2 7 
3 4 0 7 
